<svg width="19" height="19" viewBox="0 0 19 19" fill="none" xmlns="http://www.w3.org/2000/svg">
<path d="M8 2.75H3.5C3.30109 2.75 3.11032 2.82902 2.96967 2.96967C2.82902 3.11032 2.75 3.30109 2.75 3.5V8C2.75 8.19891 2.82902 8.38968 2.96967 8.53033C3.11032 8.67098 3.30109 8.75 3.5 8.75H8C8.19891 8.75 8.38968 8.67098 8.53033 8.53033C8.67098 8.38968 8.75 8.19891 8.75 8V3.5C8.75 3.30109 8.67098 3.11032 8.53033 2.96967C8.38968 2.82902 8.19891 2.75 8 2.75ZM7.25 7.25H4.25V4.25H7.25V7.25ZM15.5 2.75H11C10.8011 2.75 10.6103 2.82902 10.4697 2.96967C10.329 3.11032 10.25 3.30109 10.25 3.5V8C10.25 8.19891 10.329 8.38968 10.4697 8.53033C10.6103 8.67098 10.8011 8.75 11 8.75H15.5C15.6989 8.75 15.8897 8.67098 16.0303 8.53033C16.171 8.38968 16.25 8.19891 16.25 8V3.5C16.25 3.30109 16.171 3.11032 16.0303 2.96967C15.8897 2.82902 15.6989 2.75 15.5 2.75ZM14.75 7.25H11.75V4.25H14.75V7.25ZM8 10.25H3.5C3.30109 10.25 3.11032 10.329 2.96967 10.4697C2.82902 10.6103 2.75 10.8011 2.75 11V15.5C2.75 15.6989 2.82902 15.8897 2.96967 16.0303C3.11032 16.171 3.30109 16.25 3.5 16.25H8C8.19891 16.25 8.38968 16.171 8.53033 16.0303C8.67098 15.8897 8.75 15.6989 8.75 15.5V11C8.75 10.8011 8.67098 10.6103 8.53033 10.4697C8.38968 10.329 8.19891 10.25 8 10.25ZM7.25 14.75H4.25V11.75H7.25V14.75ZM13.25 10.25C11.5955 10.25 10.25 11.5955 10.25 13.25C10.25 14.9045 11.5955 16.25 13.25 16.25C14.9045 16.25 16.25 14.9045 16.25 13.25C16.25 11.5955 14.9045 10.25 13.25 10.25ZM13.25 14.75C12.4227 14.75 11.75 14.0773 11.75 13.25C11.75 12.4227 12.4227 11.75 13.25 11.75C14.0773 11.75 14.75 12.4227 14.75 13.25C14.75 14.0773 14.0773 14.75 13.25 14.75Z" fill="#05AF2B"/>
</svg>
