<svg width="24" height="25" viewBox="0 0 24 25" fill="none" xmlns="http://www.w3.org/2000/svg">
<path d="M11.565 14.373L8.88799 11.696C8.85133 11.6593 8.82033 11.6163 8.795 11.567C8.77033 11.5183 8.758 11.466 8.758 11.41C8.758 11.298 8.79466 11.2017 8.868 11.121C8.94266 11.0403 9.04066 11 9.16199 11H14.839C14.9597 11 15.057 11.0413 15.131 11.124C15.205 11.2067 15.242 11.3027 15.242 11.412C15.242 11.44 15.1987 11.5347 15.112 11.696L12.435 14.373C12.373 14.435 12.3063 14.4827 12.235 14.516C12.1637 14.5493 12.0853 14.566 12 14.566C11.9147 14.566 11.8363 14.5493 11.765 14.516C11.6937 14.4827 11.627 14.435 11.565 14.373Z" fill="white"/>
</svg>
